<svg width="457" height="457" viewBox="0 0 457 457" fill="none" xmlns="http://www.w3.org/2000/svg">
<path fill-rule="evenodd" clip-rule="evenodd" d="M109.24 0C48.9084 0 0 48.9084 0 109.24V347.76C0 408.092 48.9084 457 109.24 457H347.76C408.092 457 457 408.092 457 347.76V109.24C457 48.9084 408.092 0 347.76 0H109.24ZM242.815 355.099L242.812 355.102L242.342 355.589C239.758 358.269 237.184 360.939 234.628 363.598C231.342 367.018 225.834 366.879 222.695 363.324C216.37 356.162 209.517 348.72 202.445 341.041L202.328 340.914L202.319 340.904C163.019 298.227 117 248.252 117 198.5C117 136.92 166.92 87 228.5 87C290.08 87 340 136.92 340 198.5C340 254.349 289.826 306.364 242.815 355.099ZM278 199C278 226.613 255.614 249 228 249C200.386 249 178 226.613 178 199C178 171.387 200.386 149 228 149C255.614 149 278 171.387 278 199Z" fill="#4B5563"/>
</svg>
