<svg width="457" height="457" viewBox="0 0 457 457" fill="none" xmlns="http://www.w3.org/2000/svg">
<path fill-rule="evenodd" clip-rule="evenodd" d="M109.243 0C48.9098 0 0 48.9098 0 109.243V347.757C0 408.09 48.9098 457 109.243 457H347.757C408.09 457 457 408.09 457 347.757V109.243C457 48.9098 408.09 0 347.757 0H109.243ZM75.5598 133.823C75.5594 159.313 82.8544 208.865 94.6773 232.141C109.243 260.818 120.056 277.52 147.933 297.687C171.147 314.48 208.017 324.543 247.618 323.632V255.811C259.756 257.935 286.308 265.005 295.411 276.294C297.868 279.341 300.601 282.451 303.39 285.625C313.517 297.151 324.382 309.517 325.453 322.722H380.985C376.888 302.694 355.768 255.811 304.06 228.5C322.115 218.334 360.502 185.167 369.606 133.823H320.446C313.619 157.492 284.76 205.832 247.618 208.017V133.823H198.458V265.37C176.306 261.728 131.547 230.321 127.905 133.823H75.5598Z" fill="#4B5563"/>
</svg>
