<svg width="457" height="457" viewBox="0 0 457 457" fill="none" xmlns="http://www.w3.org/2000/svg">
<path fill-rule="evenodd" clip-rule="evenodd" d="M109.24 0C48.9084 0 0 48.9084 0 109.24V347.76C0 408.092 48.9084 457 109.24 457H347.76C408.092 457 457 408.092 457 347.76V109.24C457 48.9084 408.092 0 347.76 0H109.24ZM161.25 109.75H294.75C323.745 109.75 347.25 133.255 347.25 162.25V295.75C347.25 324.745 323.745 348.25 294.75 348.25H161.25C132.255 348.25 108.75 324.745 108.75 295.75V162.25C108.75 133.255 132.255 109.75 161.25 109.75ZM84 162.25C84 119.586 118.586 85 161.25 85H294.75C337.414 85 372 119.586 372 162.25V295.75C372 338.414 337.414 373 294.75 373H161.25C118.586 373 84 338.414 84 295.75V162.25ZM275.25 229C275.25 255.095 254.095 276.25 228 276.25C201.905 276.25 180.75 255.095 180.75 229C180.75 202.905 201.905 181.75 228 181.75C254.095 181.75 275.25 202.905 275.25 229ZM300 229C300 268.764 267.764 301 228 301C188.236 301 156 268.764 156 229C156 189.236 188.236 157 228 157C267.764 157 300 189.236 300 229ZM321.75 152.875C321.75 162.195 314.195 169.75 304.875 169.75C295.555 169.75 288 162.195 288 152.875C288 143.555 295.555 136 304.875 136C314.195 136 321.75 143.555 321.75 152.875Z" fill="#4B5563"/>
</svg>
