<svg width="457" height="457" viewBox="0 0 457 457" fill="none" xmlns="http://www.w3.org/2000/svg">
<path fill-rule="evenodd" clip-rule="evenodd" d="M91.9408 0C41.1633 0 0 41.1633 0 91.9408V365.059C0 415.837 41.1633 457 91.9408 457H365.059C415.837 457 457 415.837 457 365.059V91.9408C457 41.1633 415.837 0 365.059 0H91.9408ZM81.1238 248.781C93.0715 248.781 102.757 239.095 102.757 227.148C102.757 215.2 93.0715 205.515 81.1238 205.515C69.1762 205.515 59.4907 215.2 59.4907 227.148C59.4907 239.095 69.1762 248.781 81.1238 248.781ZM81.1238 270.414C105.019 270.414 124.39 251.043 124.39 227.148C124.39 203.252 105.019 183.881 81.1238 183.881C57.2285 183.881 37.8576 203.252 37.8576 227.148C37.8576 251.043 57.2285 270.414 81.1238 270.414ZM299.547 240.112C306.537 235.141 308.272 230.252 308.272 227.148C308.272 224.043 306.537 219.154 299.547 214.184C292.605 209.247 281.895 205.515 269.062 205.515C256.228 205.515 245.519 209.247 238.576 214.184C231.586 219.154 229.852 224.043 229.852 227.148C229.852 230.252 231.586 235.141 238.576 240.112C245.519 245.048 256.228 248.781 269.062 248.781C281.895 248.781 292.605 245.048 299.547 240.112ZM269.062 270.414C302.664 270.414 329.905 251.043 329.905 227.148C329.905 203.252 302.664 183.881 269.062 183.881C235.459 183.881 208.219 203.252 208.219 227.148C208.219 251.043 235.459 270.414 269.062 270.414ZM142.643 186.586C137.043 186.586 132.503 191.126 132.503 196.726C132.503 202.327 137.043 206.867 142.643 206.867H169.008L125.527 259.571C124.792 260.462 124.39 261.581 124.39 262.736C124.39 265.483 126.617 267.71 129.364 267.71H196.05C202.024 267.71 206.866 262.867 206.866 256.893C206.866 250.919 202.024 246.077 196.05 246.077H166.304L207.13 194.715C207.835 193.829 208.219 192.729 208.219 191.597C208.219 188.829 205.975 186.586 203.207 186.586H142.643ZM407.649 183.881C413.996 183.881 419.142 189.027 419.142 195.374V262.752C419.142 265.49 416.922 267.71 414.184 267.71C413.019 267.71 411.892 267.3 411 266.552L362.355 225.796V255.541C362.355 261.515 357.512 266.358 351.538 266.358C345.564 266.358 340.721 261.515 340.721 255.541V186.834C340.721 185.204 342.044 183.881 343.674 183.881C344.386 183.881 345.073 184.138 345.611 184.605L396.156 228.5V195.374C396.156 189.027 401.302 183.881 407.649 183.881Z" fill="#4B5563"/>
</svg>
