<svg width="457" height="457" viewBox="0 0 457 457" fill="none" xmlns="http://www.w3.org/2000/svg">
<path fill-rule="evenodd" clip-rule="evenodd" d="M109.24 0C48.9084 0 0 48.9084 0 109.24V347.76C0 408.092 48.9084 457 109.24 457H347.76C408.092 457 457 408.092 457 347.76V109.24C457 48.9084 408.092 0 347.76 0H109.24ZM83.539 232.795L145.387 250.154C149.71 251.368 154.348 250.632 158.083 248.139L281.604 165.71C281.908 165.508 282.231 165.336 282.569 165.198L284.618 164.359C288.904 162.604 292.922 167.378 290.46 171.301C290.246 171.643 289.989 171.955 289.696 172.232L203.935 253.272C196.788 260.025 197.725 271.658 205.86 277.181L295.856 338.28C309.905 347.818 329.096 339.427 331.634 322.636L361.671 123.87L361.795 119.861C362.115 109.503 352.311 101.798 342.323 104.557L325.776 109.127L82.2411 212.515C72.8731 216.492 73.7404 230.045 83.539 232.795Z" fill="#4B5563"/>
</svg>
