<svg width="457" height="457" viewBox="0 0 457 457" fill="none" xmlns="http://www.w3.org/2000/svg">
<path fill-rule="evenodd" clip-rule="evenodd" d="M100 0C44.7715 0 0 44.7715 0 100V357C0 412.228 44.7715 457 100 457H357C412.228 457 457 412.228 457 357V100C457 44.7715 412.228 0 357 0H100ZM284.5 160.029V296.529C284.5 302.052 288.977 306.529 294.5 306.529H362C374.167 304.03 398.5 291.731 398.5 262.531C398.9 242.931 385 229.031 378 224.531C384.833 218.531 397.2 201.631 392 182.029C383.6 155.229 359.5 149.529 348.5 150.029H294.5C288.977 150.029 284.5 154.506 284.5 160.029ZM310 248.031V271.531C310 277.054 314.477 281.531 320 281.531H354.5C361 281.531 372.938 277.031 372.5 259.531C372.1 243.531 361 238.031 354.5 238.031H320C314.477 238.031 310 242.508 310 248.031ZM310.5 204.531V183.531C310.5 178.008 314.977 173.531 320.5 173.531H348.5C354.635 173.531 365.111 178.715 365.489 193.796C365.902 210.29 354.635 214.531 348.5 214.531H320.5C314.977 214.531 310.5 210.054 310.5 204.531ZM99.9803 299.183L62.4756 162.683C60.7265 156.317 65.5166 150.033 72.1182 150.033H78.8172C83.3477 150.033 87.3122 153.079 88.4796 157.457L118.5 270.033L151.4 157.233C152.644 152.966 156.556 150.033 161 150.033H171C175.444 150.033 179.356 152.966 180.6 157.233L213.5 270.033L243.52 157.457C244.688 153.079 248.652 150.033 253.183 150.033H259.801C266.427 150.033 271.221 156.361 269.428 162.74L231.051 299.24C229.838 303.553 225.904 306.533 221.424 306.533H206.516C202.064 306.533 198.148 303.59 196.91 299.314L166 192.533L134.13 299.391C132.866 303.629 128.969 306.533 124.547 306.533H109.623C105.121 306.533 101.173 303.524 99.9803 299.183Z" fill="#4B5563"/>
</svg>
